# xmcd
#
# Track frame offsets:
#	150
#	21299
#	39355
#	65079
#	84629
#	114883
#	134675
#	159075
#	176753
#	199849
#
# Disc length: 2966 seconds
#
# Revision: 1
# Processed by: cddbd v1.5.2PL0 Copyright (c) Steve Scherf et al.
# Submitted via: audiograbber 1.83.01
#
DISCID=830b940a
DTITLE=Xavier Pillac - Nervous Breakdown
DYEAR=2013
DGENRE=Blues
TTITLE0=Never make your move too soon
TTITLE1=Nervous breakdown
TTITLE2=I've been down
TTITLE3=Skipping like a stone
TTITLE4=Life is hard
TTITLE5=I've had enough
TTITLE6=Givin' it up for your love
TTITLE7=You can stay but the noise must go
TTITLE8=Housekeepin' blues
TTITLE9=Fonk you
EXTD=
EXTT0=
EXTT1=
EXTT2=
EXTT3=
EXTT4=
EXTT5=
EXTT6=
EXTT7=
EXTT8=
EXTT9=
PLAYORDER=
